<?xml version="1.0"?>
<svg xmlns="http://www.w3.org/2000/svg" xmlns:xlink="http://www.w3.org/1999/xlink" xmlns:svgjs="http://svgjs.com/svgjs" version="1.1" width="512" height="512" x="0" y="0" viewBox="0 0 94 94" style="enable-background:new 0 0 512 512" xml:space="preserve"><g>
<g xmlns="http://www.w3.org/2000/svg">
	<g>
		<path d="M60.717,58.938c2.07-0.037,5.495-0.022,7.564-0.006l1.4-27.957l0.024-11.217l-10.411-0.002L59.3,31.077L60.717,58.938z" fill="#ffffff" data-original="#000000" style=""/>
		<path d="M34.54,19.767c-2.934,0.035-7.273,0.027-10.207,0.004l-0.018,8.879l10.217,0.002L34.54,19.767z" fill="#ffffff" data-original="#000000" style=""/>
		<path d="M64.561,63.818c-1.5,0-3.76,0.019-5.262-0.01v9.969c2.973-0.024,7.419-0.022,10.389,0l-0.014-9.969    C68.241,63.837,65.994,63.818,64.561,63.818z" fill="#ffffff" data-original="#000000" style=""/>
		<path d="M89,0H5C2.239,0,0,2.239,0,5v84c0,2.761,2.239,5,5,5h84c2.762,0,5-2.239,5-5V5C94,2.239,91.762,0,89,0z M87.129,87.126    H6.871V6.874h80.258V87.126z" fill="#ffffff" data-original="#000000" style=""/>
		<path d="M24.298,73.785h10.303l-0.028-33.21l5.226,0.078l-0.036,23.759c0,1.207,0.074,2.404,0.226,3.599    c0.434,3.435,1.898,5.207,5.085,5.839c3.511,0.692,7.518,0.338,11.042-0.039l0.016-7.1c-0.235,0.009-2.364,0.009-2.599,0    c-2.291-0.078-3.342-1.047-3.35-3.333l0.053-22.8l5.897,0.002l0.003-7.071l-5.988-0.008l0.013-13.734l-10.38-0.003l-0.027,13.695    l-15.481,0.005l0.021,20.15L24.298,73.785z" fill="#ffffff" data-original="#000000" style=""/>
	</g>
</g>
<g xmlns="http://www.w3.org/2000/svg">
</g>
<g xmlns="http://www.w3.org/2000/svg">
</g>
<g xmlns="http://www.w3.org/2000/svg">
</g>
<g xmlns="http://www.w3.org/2000/svg">
</g>
<g xmlns="http://www.w3.org/2000/svg">
</g>
<g xmlns="http://www.w3.org/2000/svg">
</g>
<g xmlns="http://www.w3.org/2000/svg">
</g>
<g xmlns="http://www.w3.org/2000/svg">
</g>
<g xmlns="http://www.w3.org/2000/svg">
</g>
<g xmlns="http://www.w3.org/2000/svg">
</g>
<g xmlns="http://www.w3.org/2000/svg">
</g>
<g xmlns="http://www.w3.org/2000/svg">
</g>
<g xmlns="http://www.w3.org/2000/svg">
</g>
<g xmlns="http://www.w3.org/2000/svg">
</g>
<g xmlns="http://www.w3.org/2000/svg">
</g>
</g></svg>
